{
  "accessors": [
    {
      "bufferView": 2,
      "componentType": 5126,
      "count": 1374,
      "max": [
        176.13165283203125,
        133.45318603515625,
        133.45318603515625
      ],
      "min": [
        -176.13165283203125,
        -133.4531707763672,
        -260.85748291015625
      ],
      "type": "VEC3"
    },
    {
      "bufferView": 2,
      "byteOffset": 16488,
      "componentType": 5126,
      "count": 1374,
      "max": [
        0.9998834133148193,
        0.9981517791748047,
        1.0
      ],
      "min": [
        -0.9998834133148193,
        -1.0,
        -0.9848079681396484
      ],
      "type": "VEC3"
    },
    {
      "bufferView": 1,
      "componentType": 5126,
      "count": 1374,
      "max": [
        1.0277777910232544,
        1.0
      ],
      "min": [
        -0.007070847321301699,
        -1.1920928955078125e-07
      ],
      "type": "VEC2"
    },
    {
      "bufferView": 0,
      "componentType": 5125,
      "count": 4266,
      "type": "SCALAR"
    },
    {
      "bufferView": 2,
      "byteOffset": 32976,
      "componentType": 5126,
      "count": 44,
      "max": [
        78.4621810913086,
        94.36565399169922,
        130.888916015625
      ],
      "min": [
        -78.4621810913086,
        14.464506149291992,
        94.36565399169922
      ],
      "type": "VEC3"
    },
    {
      "bufferView": 2,
      "byteOffset": 33504,
      "componentType": 5126,
      "count": 44,
      "max": [
        0.5904610753059387,
        0.7101414799690247,
        0.9795976877212524
      ],
      "min": [
        -0.590461015701294,
        0.11165229231119156,
        0.7040590047836304
      ],
      "type": "VEC3"
    },
    {
      "bufferView": 1,
      "byteOffset": 10992,
      "componentType": 5126,
      "count": 44,
      "max": [
        0.9437089562416077,
        0.7730156183242798
      ],
      "min": [
        0.028039518743753433,
        0.304579496383667
      ],
      "type": "VEC2"
    },
    {
      "bufferView": 0,
      "byteOffset": 17064,
      "componentType": 5125,
      "count": 180,
      "type": "SCALAR"
    },
    {
      "bufferView": 2,
      "byteOffset": 34032,
      "componentType": 5126,
      "count": 228,
      "max": [
        55.35061264038086,
        -8.402473449707031,
        131.7821044921875
      ],
      "min": [
        -55.35061264038086,
        -107.34674072265625,
        60.578311920166016
      ],
      "type": "VEC3"
    },
    {
      "bufferView": 2,
      "byteOffset": 36768,
      "componentType": 5126,
      "count": 228,
      "max": [
        0.9383687376976013,
        0.8415748476982117,
        0.990508496761322
      ],
      "min": [
        -0.9383687376976013,
        -0.9999366998672485,
        -0.47479966282844543
      ],
      "type": "VEC3"
    },
    {
      "bufferView": 1,
      "byteOffset": 11344,
      "componentType": 5126,
      "count": 228,
      "max": [
        0.4989817142486572,
        0.9592698812484741
      ],
      "min": [
        0.2812499403953552,
        0.7011154890060425
      ],
      "type": "VEC2"
    },
    {
      "bufferView": 0,
      "byteOffset": 17784,
      "componentType": 5125,
      "count": 540,
      "type": "SCALAR"
    },
    {
      "bufferView": 2,
      "byteOffset": 39504,
      "componentType": 5126,
      "count": 96,
      "max": [
        31.582843780517578,
        -12.988578796386719,
        110.79861450195313
      ],
      "min": [
        -34.08369445800781,
        -138.59934997558594,
        50.45246505737305
      ],
      "type": "VEC3"
    },
    {
      "bufferView": 2,
      "byteOffset": 40656,
      "componentType": 5126,
      "count": 96,
      "max": [
        0.9559694528579712,
        0.5762539505958557,
        0.9554278254508972
      ],
      "min": [
        -0.9559698700904846,
        -0.9063082337379456,
        -0.9987157583236694
      ],
      "type": "VEC3"
    },
    {
      "bufferView": 1,
      "byteOffset": 13168,
      "componentType": 5126,
      "count": 96,
      "max": [
        1.055138111114502,
        1.1874386072158813
      ],
      "min": [
        0.007596135139465332,
        -7.321078743238729e-10
      ],
      "type": "VEC2"
    },
    {
      "bufferView": 0,
      "byteOffset": 19944,
      "componentType": 5125,
      "count": 378,
      "type": "SCALAR"
    }
  ],
  "asset": {
    "extras": {
      "author": "Anthony Yanez (https://sketchfab.com/paulyanez)",
      "license": "CC-BY-4.0 (http://creativecommons.org/licenses/by/4.0/)",
      "source": "https://sketchfab.com/3d-models/boo-super-mario-bros-e0e42b39cc5a4de79469ecc2d1b33f78",
      "title": "Boo (Super Mario Bros)"
    },
    "generator": "Sketchfab-12.66.0",
    "version": "2.0"
  },
  "bufferViews": [
    {
      "buffer": 0,
      "byteLength": 21456,
      "name": "floatBufferViews",
      "target": 34963
    },
    {
      "buffer": 0,
      "byteLength": 13936,
      "byteOffset": 21456,
      "byteStride": 8,
      "name": "floatBufferViews",
      "target": 34962
    },
    {
      "buffer": 0,
      "byteLength": 41808,
      "byteOffset": 35392,
      "byteStride": 12,
      "name": "floatBufferViews",
      "target": 34962
    }
  ],
  "buffers": [
    {
      "byteLength": 77200,
      "uri": "scene.bin"
    }
  ],
  "images": [
    {
      "uri": "textures/07_-_Default_baseColor.png"
    }
  ],
  "materials": [
    {
      "doubleSided": true,
      "name": "02_-_Default",
      "pbrMetallicRoughness": {
        "metallicFactor": 0.1,
        "roughnessFactor": 0.5958460366
      }
    },
    {
      "doubleSided": true,
      "name": "07_-_Default",
      "pbrMetallicRoughness": {
        "baseColorTexture": {
          "index": 0
        },
        "metallicFactor": 0.1,
        "roughnessFactor": 0.37
      }
    },
    {
      "doubleSided": true,
      "name": "03_-_Default",
      "pbrMetallicRoughness": {
        "baseColorFactor": [
          0.329412,
          0.0,
          0.0,
          1.0
        ],
        "roughnessFactor": 0.8929713596
      }
    },
    {
      "doubleSided": true,
      "name": "05_-_Default",
      "pbrMetallicRoughness": {
        "baseColorFactor": [
          0.396078,
          0.0862745,
          0.145098,
          1.0
        ],
        "roughnessFactor": 0.6934070122
      }
    }
  ],
  "meshes": [
    {
      "name": "Boo_02 - Default_0",
      "primitives": [
        {
          "attributes": {
            "NORMAL": 1,
            "POSITION": 0,
            "TEXCOORD_0": 2
          },
          "indices": 3,
          "material": 0,
          "mode": 4
        }
      ]
    },
    {
      "name": "Boo_07 - Default_0",
      "primitives": [
        {
          "attributes": {
            "NORMAL": 5,
            "POSITION": 4,
            "TEXCOORD_0": 6
          },
          "indices": 7,
          "material": 1,
          "mode": 4
        }
      ]
    },
    {
      "name": "Boo_03 - Default_0",
      "primitives": [
        {
          "attributes": {
            "NORMAL": 9,
            "POSITION": 8,
            "TEXCOORD_0": 10
          },
          "indices": 11,
          "material": 2,
          "mode": 4
        }
      ]
    },
    {
      "name": "Boo_05 - Default_0",
      "primitives": [
        {
          "attributes": {
            "NORMAL": 13,
            "POSITION": 12,
            "TEXCOORD_0": 14
          },
          "indices": 15,
          "material": 3,
          "mode": 4
        }
      ]
    }
  ],
  "nodes": [
    {
      "children": [
        1
      ],
      "matrix": [
        1.0,
        0.0,
        0.0,
        0.0,
        0.0,
        2.220446049250313e-16,
        -1.0,
        0.0,
        0.0,
        1.0,
        2.220446049250313e-16,
        0.0,
        0.0,
        0.0,
        0.0,
        1.0
      ],
      "name": "Sketchfab_model"
    },
    {
      "children": [
        2
      ],
      "matrix": [
        1.0,
        0.0,
        0.0,
        0.0,
        0.0,
        0.0,
        1.0,
        0.0,
        0.0,
        -1.0,
        0.0,
        0.0,
        0.0,
        0.0,
        0.0,
        1.0
      ],
      "name": "Boo.FBX"
    },
    {
      "children": [
        3
      ],
      "name": "RootNode"
    },
    {
      "children": [
        4,
        5,
        6,
        7
      ],
      "matrix": [
        1.0,
        0.0,
        0.0,
        0.0,
        0.0,
        0.9999999999999867,
        1.6292068494294582e-07,
        0.0,
        0.0,
        -1.6292068494294582e-07,
        0.9999999999999867,
        0.0,
        12.138669967651367,
        24.133882522583008,
        1.054925519383687e-06,
        1.0
      ],
      "name": "Boo"
    },
    {
      "mesh": 0,
      "name": "Boo_02 - Default_0"
    },
    {
      "mesh": 1,
      "name": "Boo_07 - Default_0"
    },
    {
      "mesh": 2,
      "name": "Boo_03 - Default_0"
    },
    {
      "mesh": 3,
      "name": "Boo_05 - Default_0"
    }
  ],
  "samplers": [
    {
      "magFilter": 9729,
      "minFilter": 9987,
      "wrapS": 10497,
      "wrapT": 10497
    }
  ],
  "scene": 0,
  "scenes": [
    {
      "name": "Sketchfab_Scene",
      "nodes": [
        0
      ]
    }
  ],
  "textures": [
    {
      "sampler": 0,
      "source": 0
    }
  ]
}
